<?xml version="1.0" encoding="utf-8"?>
<!-- Generator: Adobe Illustrator 25.0.0, SVG Export Plug-In . SVG Version: 6.00 Build 0)  -->
<svg version="1.1" id="Layer_1" xmlns="http://www.w3.org/2000/svg" xmlns:xlink="http://www.w3.org/1999/xlink" x="0px" y="0px"
	 viewBox="0 0 208.75 146.44" style="enable-background:new 0 0 208.75 146.44;" xml:space="preserve">
<style type="text/css">
	.st0{fill:#282963;}
	.st1{opacity:0.7;clip-path:url(#SVGID_2_);}
	.st2{opacity:0.15;clip-path:url(#SVGID_4_);}
	.st3{clip-path:url(#SVGID_6_);fill:#FFFFFF;}
	.st4{clip-path:url(#SVGID_8_);fill:#FFFFFF;}
	.st5{clip-path:url(#SVGID_10_);fill:#FFFFFF;}
	.st6{clip-path:url(#SVGID_12_);fill:#FFFFFF;}
	.st7{clip-path:url(#SVGID_14_);fill:#FFFFFF;}
	.st8{clip-path:url(#SVGID_16_);fill:#FFFFFF;}
	.st9{clip-path:url(#SVGID_18_);fill:#FFFFFF;}
	.st10{clip-path:url(#SVGID_20_);fill:#FFFFFF;}
	.st11{clip-path:url(#SVGID_22_);fill:#FFFFFF;}
	.st12{clip-path:url(#SVGID_24_);fill:#FFFFFF;}
	.st13{clip-path:url(#SVGID_26_);fill:#FFFFFF;}
	.st14{clip-path:url(#SVGID_28_);fill:#FFFFFF;}
	.st15{clip-path:url(#SVGID_30_);fill:#FFFFFF;}
	.st16{clip-path:url(#SVGID_32_);fill:#FFFFFF;}
	.st17{clip-path:url(#SVGID_34_);fill:#FFFFFF;}
	.st18{clip-path:url(#SVGID_36_);fill:#FFFFFF;}
	.st19{clip-path:url(#SVGID_38_);fill:#FFFFFF;}
	.st20{clip-path:url(#SVGID_40_);fill:#FFFFFF;}
	.st21{clip-path:url(#SVGID_42_);fill:#FFFFFF;}
	.st22{clip-path:url(#SVGID_44_);fill:#FFFFFF;}
	.st23{clip-path:url(#SVGID_46_);fill:#FFFFFF;}
	.st24{clip-path:url(#SVGID_48_);fill:#FFFFFF;}
	.st25{clip-path:url(#SVGID_50_);fill:#FFFFFF;}
	.st26{clip-path:url(#SVGID_52_);fill:#FFFFFF;}
	.st27{clip-path:url(#SVGID_54_);fill:#FFFFFF;}
	.st28{clip-path:url(#SVGID_56_);fill:#FFFFFF;}
	.st29{clip-path:url(#SVGID_58_);fill:#FFFFFF;}
	.st30{clip-path:url(#SVGID_60_);fill:#FFFFFF;}
	.st31{clip-path:url(#SVGID_62_);fill:#FFFFFF;}
	.st32{clip-path:url(#SVGID_64_);fill:#FFFFFF;}
	.st33{clip-path:url(#SVGID_66_);fill:#FFFFFF;}
	.st34{fill:#212251;}
	.st35{fill:#FFFFFF;}
	.st36{opacity:0.3;clip-path:url(#SVGID_68_);}
	.st37{clip-path:url(#SVGID_70_);fill:#D5E7F2;}
	.st38{clip-path:url(#SVGID_70_);fill:none;stroke:#D5E7F2;stroke-linecap:round;stroke-linejoin:round;stroke-miterlimit:10;}
	.st39{clip-path:url(#SVGID_70_);fill:#4C91CE;}
	.st40{clip-path:url(#SVGID_70_);fill:none;stroke:#4C91CE;stroke-linecap:round;stroke-linejoin:round;stroke-miterlimit:10;}
	.st41{clip-path:url(#SVGID_72_);fill:#D5E7F2;}
	.st42{clip-path:url(#SVGID_72_);fill:#F3AA1E;}
	.st43{clip-path:url(#SVGID_74_);fill:#D5E7F2;}
	.st44{clip-path:url(#SVGID_74_);fill:none;stroke:#D5E7F2;stroke-linecap:round;stroke-linejoin:round;stroke-miterlimit:10;}
	.st45{clip-path:url(#SVGID_74_);fill:#4C91CE;}
	.st46{clip-path:url(#SVGID_74_);fill:none;stroke:#4C91CE;stroke-linecap:round;stroke-linejoin:round;stroke-miterlimit:10;}
	.st47{clip-path:url(#SVGID_76_);fill:#D5E7F2;}
	.st48{clip-path:url(#SVGID_76_);fill:#F3AA1E;}
	.st49{clip-path:url(#SVGID_78_);fill:#D5E7F2;}
	.st50{clip-path:url(#SVGID_78_);fill:#F3AA1E;}
	.st51{clip-path:url(#SVGID_80_);fill:#D5E7F2;}
	.st52{clip-path:url(#SVGID_80_);fill:none;stroke:#D5E7F2;stroke-linecap:round;stroke-linejoin:round;stroke-miterlimit:10;}
	.st53{clip-path:url(#SVGID_80_);fill:#4C91CE;}
	.st54{clip-path:url(#SVGID_80_);fill:none;stroke:#4C91CE;stroke-linecap:round;stroke-linejoin:round;stroke-miterlimit:10;}
	.st55{fill:none;}
</style>
<rect y="-0.96" class="st0" width="209.76" height="147.4"/>
<g>
	<defs>
		<rect id="SVGID_1_" y="-0.96" width="209.76" height="147.4"/>
	</defs>
	<clipPath id="SVGID_2_">
		<use xlink:href="#SVGID_1_"  style="overflow:visible;"/>
	</clipPath>
	<g class="st1">
		<g>
			<defs>
				<rect id="SVGID_3_" x="66.95" y="-3.08" width="143.83" height="150.64"/>
			</defs>
			<clipPath id="SVGID_4_">
				<use xlink:href="#SVGID_3_"  style="overflow:visible;"/>
			</clipPath>
			<g class="st2">
				<g>
					<defs>
						<rect id="SVGID_5_" x="93.07" y="-3.08" width="0.28" height="150.64"/>
					</defs>
					<clipPath id="SVGID_6_">
						<use xlink:href="#SVGID_5_"  style="overflow:visible;"/>
					</clipPath>
					<path class="st3" d="M93.34-3.08h-0.25c-0.04,50.23-0.04,99.67,0,150.64h0.25C93.31,96.59,93.31,47.15,93.34-3.08"/>
				</g>
			</g>
			<g class="st2">
				<g>
					<defs>
						<rect id="SVGID_7_" x="103.07" y="-3.08" width="0.28" height="150.64"/>
					</defs>
					<clipPath id="SVGID_8_">
						<use xlink:href="#SVGID_7_"  style="overflow:visible;"/>
					</clipPath>
					<path class="st4" d="M103.34-3.08h-0.25c-0.04,49.75-0.04,100.34,0,150.64h0.25C103.31,97.26,103.31,46.67,103.34-3.08"/>
				</g>
			</g>
			<g class="st2">
				<g>
					<defs>
						<rect id="SVGID_9_" x="113.07" y="-3.08" width="0.28" height="150.64"/>
					</defs>
					<clipPath id="SVGID_10_">
						<use xlink:href="#SVGID_9_"  style="overflow:visible;"/>
					</clipPath>
					<path class="st5" d="M113.34-3.08h-0.25c-0.03,50.04-0.04,100.62,0,150.64h0.25C113.31,97.54,113.31,46.96,113.34-3.08"/>
				</g>
			</g>
			<g class="st2">
				<g>
					<defs>
						<rect id="SVGID_11_" x="123.1" y="-3.08" width="0.25" height="150.64"/>
					</defs>
					<clipPath id="SVGID_12_">
						<use xlink:href="#SVGID_11_"  style="overflow:visible;"/>
					</clipPath>
					<rect x="123.1" y="-3.08" class="st6" width="0.25" height="150.64"/>
				</g>
			</g>
			<g class="st2">
				<g>
					<defs>
						<rect id="SVGID_13_" x="133.1" y="-3.08" width="0.25" height="150.64"/>
					</defs>
					<clipPath id="SVGID_14_">
						<use xlink:href="#SVGID_13_"  style="overflow:visible;"/>
					</clipPath>
					<rect x="133.1" y="-3.08" class="st7" width="0.25" height="150.64"/>
				</g>
			</g>
			<g class="st2">
				<g>
					<defs>
						<rect id="SVGID_15_" x="143.1" y="-3.08" width="0.25" height="150.64"/>
					</defs>
					<clipPath id="SVGID_16_">
						<use xlink:href="#SVGID_15_"  style="overflow:visible;"/>
					</clipPath>
					<rect x="143.1" y="-3.08" class="st8" width="0.25" height="150.64"/>
				</g>
			</g>
			<g class="st2">
				<g>
					<defs>
						<rect id="SVGID_17_" x="153.1" y="-3.08" width="0.25" height="150.64"/>
					</defs>
					<clipPath id="SVGID_18_">
						<use xlink:href="#SVGID_17_"  style="overflow:visible;"/>
					</clipPath>
					<rect x="153.1" y="-3.08" class="st9" width="0.25" height="150.64"/>
				</g>
			</g>
			<g class="st2">
				<g>
					<defs>
						<rect id="SVGID_19_" x="163.1" y="-3.08" width="0.25" height="150.64"/>
					</defs>
					<clipPath id="SVGID_20_">
						<use xlink:href="#SVGID_19_"  style="overflow:visible;"/>
					</clipPath>
					<rect x="163.1" y="-3.08" class="st10" width="0.25" height="150.64"/>
				</g>
			</g>
			<g class="st2">
				<g>
					<defs>
						<rect id="SVGID_21_" x="173.1" y="-3.08" width="0.25" height="150.64"/>
					</defs>
					<clipPath id="SVGID_22_">
						<use xlink:href="#SVGID_21_"  style="overflow:visible;"/>
					</clipPath>
					<rect x="173.1" y="-3.08" class="st11" width="0.25" height="150.64"/>
				</g>
			</g>
			<g class="st2">
				<g>
					<defs>
						<rect id="SVGID_23_" x="183.1" y="-3.08" width="0.25" height="150.64"/>
					</defs>
					<clipPath id="SVGID_24_">
						<use xlink:href="#SVGID_23_"  style="overflow:visible;"/>
					</clipPath>
					<rect x="183.1" y="-3.08" class="st12" width="0.25" height="150.64"/>
				</g>
			</g>
			<g class="st2">
				<g>
					<defs>
						<rect id="SVGID_25_" x="193.1" y="-3.08" width="0.25" height="150.64"/>
					</defs>
					<clipPath id="SVGID_26_">
						<use xlink:href="#SVGID_25_"  style="overflow:visible;"/>
					</clipPath>
					<rect x="193.1" y="-3.08" class="st13" width="0.25" height="150.64"/>
				</g>
			</g>
			<g class="st2">
				<g>
					<defs>
						<rect id="SVGID_27_" x="203.1" y="-3.08" width="0.25" height="150.64"/>
					</defs>
					<clipPath id="SVGID_28_">
						<use xlink:href="#SVGID_27_"  style="overflow:visible;"/>
					</clipPath>
					<rect x="203.1" y="-3.08" class="st14" width="0.25" height="150.64"/>
				</g>
			</g>
			<g class="st2">
				<g>
					<defs>
						<rect id="SVGID_29_" x="66.95" y="5.43" width="143.83" height="0.25"/>
					</defs>
					<clipPath id="SVGID_30_">
						<use xlink:href="#SVGID_29_"  style="overflow:visible;"/>
					</clipPath>
					<rect x="66.95" y="5.43" class="st15" width="143.83" height="0.25"/>
				</g>
			</g>
			<g class="st2">
				<g>
					<defs>
						<rect id="SVGID_31_" x="66.95" y="13.09" width="143.83" height="0.25"/>
					</defs>
					<clipPath id="SVGID_32_">
						<use xlink:href="#SVGID_31_"  style="overflow:visible;"/>
					</clipPath>
					<rect x="66.95" y="13.09" class="st16" width="143.83" height="0.25"/>
				</g>
			</g>
			<g class="st2">
				<g>
					<defs>
						<rect id="SVGID_33_" x="66.95" y="20.74" width="143.83" height="0.25"/>
					</defs>
					<clipPath id="SVGID_34_">
						<use xlink:href="#SVGID_33_"  style="overflow:visible;"/>
					</clipPath>
					<rect x="66.95" y="20.74" class="st17" width="143.83" height="0.25"/>
				</g>
			</g>
			<g class="st2">
				<g>
					<defs>
						<rect id="SVGID_35_" x="66.95" y="28.39" width="143.83" height="0.25"/>
					</defs>
					<clipPath id="SVGID_36_">
						<use xlink:href="#SVGID_35_"  style="overflow:visible;"/>
					</clipPath>
					<rect x="66.95" y="28.39" class="st18" width="143.83" height="0.25"/>
				</g>
			</g>
			<g class="st2">
				<g>
					<defs>
						<rect id="SVGID_37_" x="66.95" y="36.04" width="143.83" height="0.25"/>
					</defs>
					<clipPath id="SVGID_38_">
						<use xlink:href="#SVGID_37_"  style="overflow:visible;"/>
					</clipPath>
					<rect x="66.95" y="36.04" class="st19" width="143.83" height="0.25"/>
				</g>
			</g>
			<g class="st2">
				<g>
					<defs>
						<rect id="SVGID_39_" x="66.95" y="43.69" width="143.83" height="0.25"/>
					</defs>
					<clipPath id="SVGID_40_">
						<use xlink:href="#SVGID_39_"  style="overflow:visible;"/>
					</clipPath>
					<rect x="66.95" y="43.69" class="st20" width="143.83" height="0.25"/>
				</g>
			</g>
			<g class="st2">
				<g>
					<defs>
						<rect id="SVGID_41_" x="66.95" y="51.35" width="143.83" height="0.25"/>
					</defs>
					<clipPath id="SVGID_42_">
						<use xlink:href="#SVGID_41_"  style="overflow:visible;"/>
					</clipPath>
					<rect x="66.95" y="51.35" class="st21" width="143.83" height="0.25"/>
				</g>
			</g>
			<g class="st2">
				<g>
					<defs>
						<rect id="SVGID_43_" x="66.95" y="59" width="143.83" height="0.25"/>
					</defs>
					<clipPath id="SVGID_44_">
						<use xlink:href="#SVGID_43_"  style="overflow:visible;"/>
					</clipPath>
					<rect x="66.95" y="59" class="st22" width="143.83" height="0.25"/>
				</g>
			</g>
			<g class="st2">
				<g>
					<defs>
						<rect id="SVGID_45_" x="66.95" y="66.65" width="143.83" height="0.25"/>
					</defs>
					<clipPath id="SVGID_46_">
						<use xlink:href="#SVGID_45_"  style="overflow:visible;"/>
					</clipPath>
					<rect x="66.95" y="66.65" class="st23" width="143.83" height="0.25"/>
				</g>
			</g>
			<g class="st2">
				<g>
					<defs>
						<rect id="SVGID_47_" x="66.95" y="74.3" width="143.83" height="0.25"/>
					</defs>
					<clipPath id="SVGID_48_">
						<use xlink:href="#SVGID_47_"  style="overflow:visible;"/>
					</clipPath>
					<rect x="66.95" y="74.3" class="st24" width="143.83" height="0.25"/>
				</g>
			</g>
			<g class="st2">
				<g>
					<defs>
						<rect id="SVGID_49_" x="66.95" y="81.96" width="143.83" height="0.25"/>
					</defs>
					<clipPath id="SVGID_50_">
						<use xlink:href="#SVGID_49_"  style="overflow:visible;"/>
					</clipPath>
					<rect x="66.95" y="81.96" class="st25" width="143.83" height="0.25"/>
				</g>
			</g>
			<g class="st2">
				<g>
					<defs>
						<rect id="SVGID_51_" x="66.95" y="89.61" width="143.83" height="0.25"/>
					</defs>
					<clipPath id="SVGID_52_">
						<use xlink:href="#SVGID_51_"  style="overflow:visible;"/>
					</clipPath>
					<rect x="66.95" y="89.61" class="st26" width="143.83" height="0.25"/>
				</g>
			</g>
			<g class="st2">
				<g>
					<defs>
						<rect id="SVGID_53_" x="66.95" y="97.26" width="143.83" height="0.25"/>
					</defs>
					<clipPath id="SVGID_54_">
						<use xlink:href="#SVGID_53_"  style="overflow:visible;"/>
					</clipPath>
					<rect x="66.95" y="97.26" class="st27" width="143.83" height="0.25"/>
				</g>
			</g>
			<g class="st2">
				<g>
					<defs>
						<rect id="SVGID_55_" x="66.95" y="104.91" width="143.83" height="0.25"/>
					</defs>
					<clipPath id="SVGID_56_">
						<use xlink:href="#SVGID_55_"  style="overflow:visible;"/>
					</clipPath>
					<rect x="66.95" y="104.91" class="st28" width="143.83" height="0.25"/>
				</g>
			</g>
			<g class="st2">
				<g>
					<defs>
						<rect id="SVGID_57_" x="66.95" y="112.56" width="143.83" height="0.25"/>
					</defs>
					<clipPath id="SVGID_58_">
						<use xlink:href="#SVGID_57_"  style="overflow:visible;"/>
					</clipPath>
					<rect x="66.95" y="112.56" class="st29" width="143.83" height="0.25"/>
				</g>
			</g>
			<g class="st2">
				<g>
					<defs>
						<rect id="SVGID_59_" x="66.95" y="120.22" width="143.83" height="0.25"/>
					</defs>
					<clipPath id="SVGID_60_">
						<use xlink:href="#SVGID_59_"  style="overflow:visible;"/>
					</clipPath>
					<rect x="66.95" y="120.22" class="st30" width="143.83" height="0.25"/>
				</g>
			</g>
			<g class="st2">
				<g>
					<defs>
						<rect id="SVGID_61_" x="66.95" y="127.87" width="143.83" height="0.25"/>
					</defs>
					<clipPath id="SVGID_62_">
						<use xlink:href="#SVGID_61_"  style="overflow:visible;"/>
					</clipPath>
					<rect x="66.95" y="127.87" class="st31" width="143.83" height="0.25"/>
				</g>
			</g>
			<g class="st2">
				<g>
					<defs>
						<rect id="SVGID_63_" x="66.95" y="135.52" width="143.83" height="0.25"/>
					</defs>
					<clipPath id="SVGID_64_">
						<use xlink:href="#SVGID_63_"  style="overflow:visible;"/>
					</clipPath>
					<rect x="66.95" y="135.52" class="st32" width="143.83" height="0.25"/>
				</g>
			</g>
			<g class="st2">
				<g>
					<defs>
						<rect id="SVGID_65_" x="66.95" y="143.17" width="143.83" height="0.25"/>
					</defs>
					<clipPath id="SVGID_66_">
						<use xlink:href="#SVGID_65_"  style="overflow:visible;"/>
					</clipPath>
					<rect x="66.95" y="143.17" class="st33" width="143.83" height="0.25"/>
				</g>
			</g>
		</g>
	</g>
</g>
<polygon class="st34" points="0,-0.96 0,146.44 85.49,146.44 89.24,144.27 92.99,142.11 89.24,139.94 85.49,137.78 85.49,137.52 
	89.24,135.35 92.99,133.19 89.24,131.02 85.49,128.86 85.49,128.6 89.24,126.43 92.99,124.27 89.24,122.1 85.49,119.94 
	85.49,119.67 89.24,117.51 92.99,115.34 89.24,113.18 85.49,111.01 85.49,110.75 89.24,108.59 92.99,106.42 89.24,104.26 
	85.49,102.09 85.49,101.83 89.24,99.67 92.99,97.5 89.24,95.34 85.49,93.17 85.49,92.91 89.24,90.74 92.99,88.58 89.24,86.41 
	85.49,84.25 85.49,83.99 89.24,81.82 92.99,79.66 89.24,77.49 85.49,75.33 85.49,75.07 89.24,72.9 92.99,70.74 89.24,68.57 
	85.49,66.41 85.49,66.14 89.24,63.98 92.99,61.81 89.24,59.65 85.49,57.48 85.49,57.22 89.24,55.06 92.99,52.89 89.24,50.73 
	85.49,48.56 85.49,48.3 89.24,46.14 92.99,43.97 89.24,41.81 85.49,39.64 85.49,39.38 89.24,37.21 92.99,35.05 89.24,32.88 
	85.49,30.72 85.49,30.46 89.24,28.29 92.99,26.13 89.24,23.96 85.49,21.8 85.49,21.54 89.24,19.37 92.99,17.21 89.24,15.04 
	85.49,12.88 85.49,12.61 89.24,10.45 92.99,8.28 89.24,6.12 85.49,3.95 85.49,3.69 89.24,1.53 92.99,-0.64 92.42,-0.96 "/>
<polygon class="st35" points="0,-0.96 0,146.44 79.84,146.44 83.23,144.27 86.62,142.11 79.84,137.78 79.84,137.52 86.62,133.19 
	83.23,131.02 79.84,128.86 79.84,128.6 86.62,124.27 83.23,122.1 79.84,119.94 79.84,119.68 83.23,117.51 86.62,115.34 
	79.84,111.01 79.84,110.75 83.23,108.59 86.62,106.42 79.84,102.09 79.84,101.83 83.23,99.67 86.62,97.5 79.84,93.17 79.84,92.91 
	83.23,90.74 86.62,88.58 79.84,84.25 79.84,83.99 86.62,79.66 83.23,77.49 79.84,75.33 79.84,75.07 86.62,70.74 83.23,68.57 
	79.84,66.41 79.84,66.14 83.23,63.98 86.62,61.82 79.84,57.49 79.84,57.22 83.23,55.06 86.62,52.89 79.84,48.56 79.84,48.3 
	86.62,43.97 83.23,41.81 79.84,39.64 79.84,39.38 86.62,35.05 83.23,32.88 79.84,30.72 79.84,30.46 86.62,26.13 83.23,23.96 
	79.84,21.8 79.84,21.54 86.62,17.21 83.23,15.04 79.84,12.88 79.84,12.61 83.23,10.45 86.62,8.28 79.84,3.96 79.84,3.69 83.23,1.53 
	86.62,-0.64 86.11,-0.96 "/>
<g>
	<defs>
		<rect id="SVGID_67_" y="-0.96" width="209.76" height="147.4"/>
	</defs>
	<clipPath id="SVGID_68_">
		<use xlink:href="#SVGID_67_"  style="overflow:visible;"/>
	</clipPath>
	<g class="st36">
		<g>
			<defs>
				<rect id="SVGID_69_" x="9.12" y="35.32" width="9.15" height="9.41"/>
			</defs>
			<clipPath id="SVGID_70_">
				<use xlink:href="#SVGID_69_"  style="overflow:visible;"/>
			</clipPath>
			<polygon class="st37" points="15.24,36.82 13.48,39.03 10.83,38.03 12.39,40.4 10.62,42.61 13.35,41.86 14.91,44.22 15.04,41.39 
				17.77,40.64 15.12,39.64 			"/>
			<polygon class="st38" points="15.24,36.82 13.48,39.03 10.83,38.03 12.39,40.4 10.62,42.61 13.35,41.86 14.91,44.22 15.04,41.39 
				17.77,40.64 15.12,39.64 			"/>
			<polygon class="st39" points="14.24,35.82 12.48,38.03 9.83,37.03 11.39,39.4 9.62,41.61 12.35,40.86 13.91,43.22 14.04,40.39 
				16.77,39.64 14.12,38.64 			"/>
			<polygon class="st40" points="14.24,35.82 12.48,38.03 9.83,37.03 11.39,39.4 9.62,41.61 12.35,40.86 13.91,43.22 14.04,40.39 
				16.77,39.64 14.12,38.64 			"/>
		</g>
	</g>
	<g class="st36">
		<g>
			<defs>
				<rect id="SVGID_71_" x="8.7" y="117.38" width="8.27" height="8.37"/>
			</defs>
			<clipPath id="SVGID_72_">
				<use xlink:href="#SVGID_71_"  style="overflow:visible;"/>
			</clipPath>
			<polygon class="st41" points="11.96,118.38 12.28,121.2 9.7,122.37 12.48,122.94 12.8,125.75 14.19,123.29 16.97,123.85 
				15.06,121.76 16.45,119.3 13.87,120.47 			"/>
			<polygon class="st42" points="10.96,117.38 11.28,120.2 8.7,121.37 11.48,121.94 11.8,124.75 13.19,122.29 15.97,122.85 
				14.06,120.76 15.45,118.3 12.87,119.47 			"/>
		</g>
	</g>
	<g class="st36">
		<g>
			<defs>
				<rect id="SVGID_73_" x="33.45" y="125.47" width="9.38" height="9.25"/>
			</defs>
			<clipPath id="SVGID_74_">
				<use xlink:href="#SVGID_73_"  style="overflow:visible;"/>
			</clipPath>
			<polygon class="st43" points="38.36,126.97 37.77,129.74 34.95,130.03 37.4,131.45 36.81,134.22 38.91,132.33 41.36,133.75 
				40.22,131.16 42.33,129.27 39.51,129.56 			"/>
			<polygon class="st44" points="38.36,126.97 37.77,129.74 34.95,130.03 37.4,131.45 36.81,134.22 38.91,132.33 41.36,133.75 
				40.22,131.16 42.33,129.27 39.51,129.56 			"/>
			<polygon class="st45" points="37.36,125.97 36.77,128.74 33.95,129.03 36.4,130.45 35.81,133.22 37.91,131.33 40.36,132.75 
				39.22,130.16 41.33,128.27 38.51,128.56 			"/>
			<polygon class="st46" points="37.36,125.97 36.77,128.74 33.95,129.03 36.4,130.45 35.81,133.22 37.91,131.33 40.36,132.75 
				39.22,130.16 41.33,128.27 38.51,128.56 			"/>
		</g>
	</g>
	<g class="st36">
		<g>
			<defs>
				<rect id="SVGID_75_" x="61.47" y="110.91" width="13.48" height="13.94"/>
			</defs>
			<clipPath id="SVGID_76_">
				<use xlink:href="#SVGID_75_"  style="overflow:visible;"/>
			</clipPath>
			<polygon class="st47" points="70.52,111.91 67.45,115.79 62.81,114.06 65.55,118.18 62.47,122.06 67.24,120.73 69.97,124.85 
				70.18,119.91 74.95,118.58 70.31,116.86 			"/>
			<polygon class="st48" points="69.52,110.91 66.45,114.79 61.81,113.06 64.55,117.18 61.47,121.06 66.24,119.73 68.97,123.85 
				69.18,118.91 73.95,117.58 69.31,115.86 			"/>
		</g>
	</g>
	<g class="st36">
		<g>
			<defs>
				<rect id="SVGID_77_" x="34.61" y="43.22" width="9.47" height="9.72"/>
			</defs>
			<clipPath id="SVGID_78_">
				<use xlink:href="#SVGID_77_"  style="overflow:visible;"/>
			</clipPath>
			<polygon class="st49" points="38.49,44.22 38.71,47.55 35.61,48.79 38.85,49.61 39.07,52.94 40.85,50.12 44.08,50.94 
				41.95,48.37 43.72,45.55 40.62,46.79 			"/>
			<polygon class="st50" points="37.49,43.22 37.71,46.55 34.61,47.79 37.85,48.61 38.07,51.94 39.85,49.12 43.08,49.94 
				40.95,47.37 42.72,44.55 39.62,45.79 			"/>
		</g>
	</g>
	<g class="st36">
		<g>
			<defs>
				<rect id="SVGID_79_" x="58.34" y="32.58" width="14.67" height="14.88"/>
			</defs>
			<clipPath id="SVGID_80_">
				<use xlink:href="#SVGID_79_"  style="overflow:visible;"/>
			</clipPath>
			<polygon class="st51" points="65.21,34.08 64.68,39 59.84,40.02 64.36,42.04 63.83,46.96 67.15,43.29 71.66,45.31 69.2,41.02 
				72.51,37.35 67.67,38.37 			"/>
			<polygon class="st52" points="65.21,34.08 64.68,39 59.84,40.02 64.36,42.04 63.83,46.96 67.15,43.29 71.66,45.31 69.2,41.02 
				72.51,37.35 67.67,38.37 			"/>
			<polygon class="st53" points="64.21,33.08 63.68,38 58.84,39.02 63.36,41.04 62.83,45.96 66.15,42.29 70.66,44.31 68.2,40.02 
				71.51,36.35 66.67,37.37 			"/>
			<polygon class="st54" points="64.21,33.08 63.68,38 58.84,39.02 63.36,41.04 62.83,45.96 66.15,42.29 70.66,44.31 68.2,40.02 
				71.51,36.35 66.67,37.37 			"/>
		</g>
	</g>
</g>
<rect y="-0.96" class="st55" width="209.76" height="147.4"/>
<rect x="11.33" y="51.85" class="st55" width="64.33" height="32.26"/>
</svg>
