<?xml version="1.0" encoding="utf-8"?>
<!-- Generator: Adobe Illustrator 25.0.0, SVG Export Plug-In . SVG Version: 6.00 Build 0)  -->
<svg version="1.1" id="Layer_1" xmlns="http://www.w3.org/2000/svg" xmlns:xlink="http://www.w3.org/1999/xlink" x="0px" y="0px"
	 viewBox="0 0 16.84 17.97" style="enable-background:new 0 0 16.84 17.97;" xml:space="preserve">
<style type="text/css">
	.st0{clip-path:url(#SVGID_2_);fill:#272963;}
	.st1{fill:none;}
</style>
<g>
	<defs>
		<rect id="SVGID_1_" x="-12.07" y="-12.94" width="209.76" height="147.4"/>
	</defs>
	<clipPath id="SVGID_2_">
		<use xlink:href="#SVGID_1_"  style="overflow:visible;"/>
	</clipPath>
	<path class="st0" d="M11.49,5.5h0.3c0.18,0,0.32-0.14,0.32-0.32v-0.3c0-0.18-0.14-0.32-0.32-0.32h-0.3c-0.18,0-0.32,0.14-0.32,0.32
		v0.3C11.17,5.35,11.31,5.5,11.49,5.5"/>
	<path class="st0" d="M9.37,4.58h1.47c0.18,0,0.32-0.14,0.32-0.32V2.79c0-0.18-0.14-0.32-0.32-0.32H9.37
		c-0.18,0-0.32,0.14-0.32,0.32v1.47C9.05,4.44,9.19,4.58,9.37,4.58"/>
	<path class="st0" d="M12.44,7.61h1.47c0.18,0,0.32-0.14,0.32-0.32V5.82c0-0.18-0.14-0.32-0.32-0.32h-1.47
		c-0.18,0-0.32,0.14-0.32,0.32v1.47C12.12,7.47,12.26,7.61,12.44,7.61"/>
	<path class="st0" d="M12.45,4.56h1.13c0.18,0,0.32-0.14,0.32-0.32V3.11c0-0.18-0.14-0.32-0.32-0.32h-1.13
		c-0.18,0-0.32,0.15-0.32,0.32v1.13C12.13,4.42,12.28,4.56,12.45,4.56"/>
	<path class="st0" d="M14.22,2.78L14.22,2.78c0.18,0,0.32-0.14,0.32-0.32c0-0.18-0.14-0.32-0.32-0.32c-0.18,0-0.32,0.14-0.32,0.32
		C13.9,2.64,14.05,2.78,14.22,2.78"/>
	<path class="st0" d="M11.49,2.79h0.33c0.18,0,0.32-0.14,0.32-0.32V2.14c0-0.18-0.14-0.32-0.32-0.32h-0.33
		c-0.18,0-0.32,0.14-0.32,0.32v0.33C11.17,2.65,11.31,2.79,11.49,2.79"/>
	<path class="st0" d="M14.21,5.51h0.33c0.18,0,0.32-0.14,0.32-0.32V4.86c0-0.18-0.14-0.32-0.32-0.32h-0.33
		c-0.18,0-0.32,0.14-0.32,0.32v0.33C13.89,5.37,14.03,5.51,14.21,5.51"/>
	<path class="st0" d="M14.86,2.15h0.27c0.18,0,0.32-0.14,0.32-0.32V1.56c0-0.18-0.14-0.32-0.32-0.32h-0.27
		c-0.18,0-0.32,0.14-0.32,0.32v0.27C14.54,2,14.68,2.15,14.86,2.15"/>
	<path class="st0" d="M12.92,9.59c-0.17,2.33-2.14,4.16-4.52,4.1C6,13.64,4.06,11.66,4.06,9.26c0-0.96,0.3-1.84,0.82-2.57V3.98
		C3.19,5.14,2.09,7.09,2.1,9.3c0.02,3.47,2.84,6.32,6.31,6.36c3.45,0.05,6.28-2.63,6.48-6.02c0.01-0.2-0.15-0.38-0.35-0.38h-1.26
		C13.09,9.26,12.93,9.41,12.92,9.59"/>
	<path class="st0" d="M5.66,2.61L4.97,3.1C4.92,3.14,4.88,3.2,4.88,3.27v0.71C5.23,3.75,5.6,3.54,5.99,3.38v-0.6
		C5.99,2.61,5.8,2.51,5.66,2.61"/>
	<path class="st0" d="M4.88,6.7v2.52c0,1.95,1.54,3.59,3.49,3.65c2.05,0.07,3.74-1.57,3.74-3.61c0-1.91-1.49-3.48-3.37-3.6
		C8.61,5.65,8.5,5.76,8.5,5.89v0.66c0,0.12,0.09,0.21,0.21,0.22C10.02,6.88,11.05,8,11,9.36c-0.05,1.3-1.1,2.35-2.4,2.4
		c-1.43,0.06-2.6-1.08-2.6-2.5V5.6C5.56,5.9,5.19,6.27,4.88,6.7"/>
	<path class="st0" d="M6.64,7.93v1.28c0,1.04,0.85,1.92,1.9,1.9c1.01-0.02,1.83-0.84,1.83-1.86c0-0.98-0.75-1.78-1.71-1.85
		C8.57,7.39,8.5,7.46,8.5,7.54v0.29c0,0.07,0.05,0.13,0.12,0.14C9.3,8.04,9.83,8.63,9.78,9.33c-0.04,0.64-0.56,1.16-1.2,1.2
		c-0.75,0.05-1.37-0.55-1.37-1.29V7.37C6.99,7.52,6.79,7.71,6.64,7.93"/>
	<path class="st0" d="M5.99,5.61V3.38C5.6,3.54,5.23,3.75,4.88,3.98V6.7C5.19,6.27,5.56,5.9,5.99,5.61"/>
	<path class="st0" d="M6.64,7.93V2.72c0-0.13,0.16-0.2,0.25-0.11l0.26,0.25C7.18,2.88,7.2,2.92,7.2,2.96l0.01,4.42L6.64,7.93z"/>
</g>
<rect x="-12.07" y="-12.94" class="st1" width="209.76" height="147.4"/>
<rect x="-0.74" y="39.87" class="st1" width="64.33" height="32.26"/>
</svg>
