<svg version="1.2" baseProfile="tiny-ps" xmlns="http://www.w3.org/2000/svg" viewBox="0 0 1260 882" width="1260" height="882">
	<title>Voucher agenwt6 QR-ai</title>
	<defs>
		<clipPath clipPathUnits="userSpaceOnUse" id="cp1">
			<path d="M-18.46 -8.68L1289.68 -8.68L1289.68 903.92L-18.46 903.92L-18.46 -8.68Z" />
		</clipPath>
		<clipPath clipPathUnits="userSpaceOnUse" id="cp2">
			<path d="M399.04 910.85L1296 910.85L1296 -21.79L399.04 -21.79L399.04 910.85Z" />
		</clipPath>
		<clipPath clipPathUnits="userSpaceOnUse" id="cp3">
			<path d="M561.93 910.85L563.66 910.85L563.66 -21.79L561.93 -21.79L561.93 910.85Z" />
		</clipPath>
		<clipPath clipPathUnits="userSpaceOnUse" id="cp4">
			<path d="M624.29 910.85L626.02 910.85L626.02 -21.79L624.29 -21.79L624.29 910.85Z" />
		</clipPath>
		<clipPath clipPathUnits="userSpaceOnUse" id="cp5">
			<path d="M686.66 910.85L688.39 910.85L688.39 -21.79L686.66 -21.79L686.66 910.85Z" />
		</clipPath>
		<clipPath clipPathUnits="userSpaceOnUse" id="cp6">
			<path d="M749.21 910.85L750.77 910.85L750.77 -21.79L749.21 -21.79L749.21 910.85Z" />
		</clipPath>
		<clipPath clipPathUnits="userSpaceOnUse" id="cp7">
			<path d="M811.58 910.85L813.13 910.85L813.13 -21.79L811.58 -21.79L811.58 910.85Z" />
		</clipPath>
		<clipPath clipPathUnits="userSpaceOnUse" id="cp8">
			<path d="M873.94 910.85L875.5 910.85L875.5 -21.79L873.94 -21.79L873.94 910.85Z" />
		</clipPath>
		<clipPath clipPathUnits="userSpaceOnUse" id="cp9">
			<path d="M936.3 910.85L937.86 910.85L937.86 -21.79L936.3 -21.79L936.3 910.85Z" />
		</clipPath>
		<clipPath clipPathUnits="userSpaceOnUse" id="cp10">
			<path d="M998.66 910.85L1000.22 910.85L1000.22 -21.79L998.66 -21.79L998.66 910.85Z" />
		</clipPath>
		<clipPath clipPathUnits="userSpaceOnUse" id="cp11">
			<path d="M1061.02 910.85L1062.58 910.85L1062.58 -21.79L1061.02 -21.79L1061.02 910.85Z" />
		</clipPath>
		<clipPath clipPathUnits="userSpaceOnUse" id="cp12">
			<path d="M1123.39 910.85L1124.95 910.85L1124.95 -21.79L1123.39 -21.79L1123.39 910.85Z" />
		</clipPath>
		<clipPath clipPathUnits="userSpaceOnUse" id="cp13">
			<path d="M1185.75 910.85L1187.31 910.85L1187.31 -21.79L1185.75 -21.79L1185.75 910.85Z" />
		</clipPath>
		<clipPath clipPathUnits="userSpaceOnUse" id="cp14">
			<path d="M1248.11 910.85L1249.67 910.85L1249.67 -21.79L1248.11 -21.79L1248.11 910.85Z" />
		</clipPath>
		<clipPath clipPathUnits="userSpaceOnUse" id="cp15">
			<path d="M399.04 32.46L1296 32.46L1296 30.91L399.04 30.91L399.04 32.46Z" />
		</clipPath>
		<clipPath clipPathUnits="userSpaceOnUse" id="cp16">
			<path d="M399.04 79.84L1296 79.84L1296 78.3L399.04 78.3L399.04 79.84Z" />
		</clipPath>
		<clipPath clipPathUnits="userSpaceOnUse" id="cp17">
			<path d="M399.04 127.22L1296 127.22L1296 125.67L399.04 125.67L399.04 127.22Z" />
		</clipPath>
		<clipPath clipPathUnits="userSpaceOnUse" id="cp18">
			<path d="M399.04 174.6L1296 174.6L1296 173.05L399.04 173.05L399.04 174.6Z" />
		</clipPath>
		<clipPath clipPathUnits="userSpaceOnUse" id="cp19">
			<path d="M399.04 221.97L1296 221.97L1296 220.42L399.04 220.42L399.04 221.97Z" />
		</clipPath>
		<clipPath clipPathUnits="userSpaceOnUse" id="cp20">
			<path d="M399.04 269.35L1296 269.35L1296 267.81L399.04 267.81L399.04 269.35Z" />
		</clipPath>
		<clipPath clipPathUnits="userSpaceOnUse" id="cp21">
			<path d="M399.04 316.73L1296 316.73L1296 315.18L399.04 315.18L399.04 316.73Z" />
		</clipPath>
		<clipPath clipPathUnits="userSpaceOnUse" id="cp22">
			<path d="M399.04 364.11L1296 364.11L1296 362.56L399.04 362.56L399.04 364.11Z" />
		</clipPath>
		<clipPath clipPathUnits="userSpaceOnUse" id="cp23">
			<path d="M399.04 411.48L1296 411.48L1296 409.94L399.04 409.94L399.04 411.48Z" />
		</clipPath>
		<clipPath clipPathUnits="userSpaceOnUse" id="cp24">
			<path d="M399.04 458.86L1296 458.86L1296 457.31L399.04 457.31L399.04 458.86Z" />
		</clipPath>
		<clipPath clipPathUnits="userSpaceOnUse" id="cp25">
			<path d="M399.04 506.24L1296 506.24L1296 504.69L399.04 504.69L399.04 506.24Z" />
		</clipPath>
		<clipPath clipPathUnits="userSpaceOnUse" id="cp26">
			<path d="M399.04 553.61L1296 553.61L1296 552.06L399.04 552.06L399.04 553.61Z" />
		</clipPath>
		<clipPath clipPathUnits="userSpaceOnUse" id="cp27">
			<path d="M399.04 600.99L1296 600.99L1296 599.44L399.04 599.44L399.04 600.99Z" />
		</clipPath>
		<clipPath clipPathUnits="userSpaceOnUse" id="cp28">
			<path d="M399.04 648.36L1296 648.36L1296 646.82L399.04 646.82L399.04 648.36Z" />
		</clipPath>
		<clipPath clipPathUnits="userSpaceOnUse" id="cp29">
			<path d="M399.04 695.74L1296 695.74L1296 694.19L399.04 694.19L399.04 695.74Z" />
		</clipPath>
		<clipPath clipPathUnits="userSpaceOnUse" id="cp30">
			<path d="M399.04 743.12L1296 743.12L1296 741.57L399.04 741.57L399.04 743.12Z" />
		</clipPath>
		<clipPath clipPathUnits="userSpaceOnUse" id="cp31">
			<path d="M399.04 790.5L1296 790.5L1296 788.95L399.04 788.95L399.04 790.5Z" />
		</clipPath>
		<clipPath clipPathUnits="userSpaceOnUse" id="cp32">
			<path d="M399.04 837.88L1296 837.88L1296 836.33L399.04 836.33L399.04 837.88Z" />
		</clipPath>
		<clipPath clipPathUnits="userSpaceOnUse" id="cp33">
			<path d="M399.04 885.25L1296 885.25L1296 883.7L399.04 883.7L399.04 885.25Z" />
		</clipPath>
	</defs>
	<style>
		tspan { white-space:pre }
		.shp0 { fill: #282963 } 
		.shp1 { fill: #ffffff } 
		.shp2 { fill: #212251 } 
	</style>
	<g id="Layer 1">
		<path id="&lt;Path&gt;" class="shp0" d="M-18.46 903.92L1289.68 903.92L1289.68 -8.68L-18.46 -8.68L-18.46 903.92Z" />
		<g id="&lt;Clip Group&gt;" clip-path="url(#cp1)">
			<g id="&lt;Group&gt;" style="opacity: 0.698">
				<g id="&lt;Clip Group&gt;" clip-path="url(#cp2)">
					<g id="&lt;Group&gt;" style="opacity: 0.149">
						<g id="&lt;Clip Group&gt;" clip-path="url(#cp3)">
							<path id="&lt;Path&gt;" class="shp1" d="M563.66 -21.79L562.1 -21.79C561.87 289.2 561.87 595.28 562.1 910.85L563.66 910.85C563.43 595.28 563.43 289.2 563.66 -21.79Z" />
						</g>
					</g>
					<g id="&lt;Group&gt;" style="opacity: 0.149">
						<g id="&lt;Clip Group&gt;" clip-path="url(#cp4)">
							<path id="&lt;Path&gt;" class="shp1" d="M626.02 -21.79L624.46 -21.79C624.24 286.23 624.24 599.46 624.46 910.85L626.01 910.85C625.8 599.46 625.8 286.23 626.02 -21.79Z" />
						</g>
					</g>
					<g id="&lt;Group&gt;" style="opacity: 0.149">
						<g id="&lt;Clip Group&gt;" clip-path="url(#cp5)">
							<path id="&lt;Path&gt;" class="shp1" d="M688.38 -21.79L686.82 -21.79C686.61 288.01 686.6 601.17 686.81 910.85L688.37 910.85C688.16 601.17 688.17 288.01 688.38 -21.79Z" />
						</g>
					</g>
					<g id="&lt;Group&gt;" style="opacity: 0.149">
						<g id="&lt;Clip Group&gt;" clip-path="url(#cp6)">
							<path id="&lt;Path&gt;" class="shp1" d="M749.21 910.85L750.77 910.85L750.77 -21.79L749.21 -21.79L749.21 910.85Z" />
						</g>
					</g>
					<g id="&lt;Group&gt;" style="opacity: 0.149">
						<g id="&lt;Clip Group&gt;" clip-path="url(#cp7)">
							<path id="&lt;Path&gt;" class="shp1" d="M811.58 910.85L813.13 910.85L813.13 -21.79L811.58 -21.79L811.58 910.85Z" />
						</g>
					</g>
					<g id="&lt;Group&gt;" style="opacity: 0.149">
						<g id="&lt;Clip Group&gt;" clip-path="url(#cp8)">
							<path id="&lt;Path&gt;" class="shp1" d="M873.94 910.85L875.5 910.85L875.5 -21.79L873.94 -21.79L873.94 910.85Z" />
						</g>
					</g>
					<g id="&lt;Group&gt;" style="opacity: 0.149">
						<g id="&lt;Clip Group&gt;" clip-path="url(#cp9)">
							<path id="&lt;Path&gt;" class="shp1" d="M936.3 910.85L937.86 910.85L937.86 -21.79L936.3 -21.79L936.3 910.85Z" />
						</g>
					</g>
					<g id="&lt;Group&gt;" style="opacity: 0.149">
						<g id="&lt;Clip Group&gt;" clip-path="url(#cp10)">
							<path id="&lt;Path&gt;" class="shp1" d="M998.66 910.85L1000.22 910.85L1000.22 -21.79L998.66 -21.79L998.66 910.85Z" />
						</g>
					</g>
					<g id="&lt;Group&gt;" style="opacity: 0.149">
						<g id="&lt;Clip Group&gt;" clip-path="url(#cp11)">
							<path id="&lt;Path&gt;" class="shp1" d="M1061.02 910.85L1062.58 910.85L1062.58 -21.79L1061.02 -21.79L1061.02 910.85Z" />
						</g>
					</g>
					<g id="&lt;Group&gt;" style="opacity: 0.149">
						<g id="&lt;Clip Group&gt;" clip-path="url(#cp12)">
							<path id="&lt;Path&gt;" class="shp1" d="M1123.39 910.85L1124.95 910.85L1124.95 -21.79L1123.39 -21.79L1123.39 910.85Z" />
						</g>
					</g>
					<g id="&lt;Group&gt;" style="opacity: 0.149">
						<g id="&lt;Clip Group&gt;" clip-path="url(#cp13)">
							<path id="&lt;Path&gt;" class="shp1" d="M1185.75 910.85L1187.31 910.85L1187.31 -21.79L1185.75 -21.79L1185.75 910.85Z" />
						</g>
					</g>
					<g id="&lt;Group&gt;" style="opacity: 0.149">
						<g id="&lt;Clip Group&gt;" clip-path="url(#cp14)">
							<path id="&lt;Path&gt;" class="shp1" d="M1248.11 910.85L1249.67 910.85L1249.67 -21.79L1248.11 -21.79L1248.11 910.85Z" />
						</g>
					</g>
					<g id="&lt;Group&gt;" style="opacity: 0.149">
						<g id="&lt;Clip Group&gt;" clip-path="url(#cp15)">
							<path id="&lt;Path&gt;" class="shp1" d="M1296 30.91L399.04 30.91L399.04 32.46L1296 32.46L1296 30.91Z" />
						</g>
					</g>
					<g id="&lt;Group&gt;" style="opacity: 0.149">
						<g id="&lt;Clip Group&gt;" clip-path="url(#cp16)">
							<path id="&lt;Path&gt;" class="shp1" d="M1296 78.3L399.04 78.3L399.04 79.84L1296 79.84L1296 78.3Z" />
						</g>
					</g>
					<g id="&lt;Group&gt;" style="opacity: 0.149">
						<g id="&lt;Clip Group&gt;" clip-path="url(#cp17)">
							<path id="&lt;Path&gt;" class="shp1" d="M1296 125.67L399.04 125.67L399.04 127.22L1296 127.22L1296 125.67Z" />
						</g>
					</g>
					<g id="&lt;Group&gt;" style="opacity: 0.149">
						<g id="&lt;Clip Group&gt;" clip-path="url(#cp18)">
							<path id="&lt;Path&gt;" class="shp1" d="M1296 173.05L399.04 173.05L399.04 174.6L1296 174.6L1296 173.05Z" />
						</g>
					</g>
					<g id="&lt;Group&gt;" style="opacity: 0.149">
						<g id="&lt;Clip Group&gt;" clip-path="url(#cp19)">
							<path id="&lt;Path&gt;" class="shp1" d="M1296 220.42L399.04 220.42L399.04 221.97L1296 221.97L1296 220.42Z" />
						</g>
					</g>
					<g id="&lt;Group&gt;" style="opacity: 0.149">
						<g id="&lt;Clip Group&gt;" clip-path="url(#cp20)">
							<path id="&lt;Path&gt;" class="shp1" d="M1296 267.81L399.04 267.81L399.04 269.35L1296 269.35L1296 267.81Z" />
						</g>
					</g>
					<g id="&lt;Group&gt;" style="opacity: 0.149">
						<g id="&lt;Clip Group&gt;" clip-path="url(#cp21)">
							<path id="&lt;Path&gt;" class="shp1" d="M1296 315.18L399.04 315.18L399.04 316.73L1296 316.73L1296 315.18Z" />
						</g>
					</g>
					<g id="&lt;Group&gt;" style="opacity: 0.149">
						<g id="&lt;Clip Group&gt;" clip-path="url(#cp22)">
							<path id="&lt;Path&gt;" class="shp1" d="M1296 362.56L399.04 362.56L399.04 364.11L1296 364.11L1296 362.56Z" />
						</g>
					</g>
					<g id="&lt;Group&gt;" style="opacity: 0.149">
						<g id="&lt;Clip Group&gt;" clip-path="url(#cp23)">
							<path id="&lt;Path&gt;" class="shp1" d="M1296 409.93L399.04 409.93L399.04 411.48L1296 411.48L1296 409.93Z" />
						</g>
					</g>
					<g id="&lt;Group&gt;" style="opacity: 0.149">
						<g id="&lt;Clip Group&gt;" clip-path="url(#cp24)">
							<path id="&lt;Path&gt;" class="shp1" d="M1296 457.32L399.04 457.32L399.04 458.86L1296 458.86L1296 457.32Z" />
						</g>
					</g>
					<g id="&lt;Group&gt;" style="opacity: 0.149">
						<g id="&lt;Clip Group&gt;" clip-path="url(#cp25)">
							<path id="&lt;Path&gt;" class="shp1" d="M1296 504.69L399.04 504.69L399.04 506.24L1296 506.24L1296 504.69Z" />
						</g>
					</g>
					<g id="&lt;Group&gt;" style="opacity: 0.149">
						<g id="&lt;Clip Group&gt;" clip-path="url(#cp26)">
							<path id="&lt;Path&gt;" class="shp1" d="M1296 552.06L399.04 552.06L399.04 553.61L1296 553.61L1296 552.06Z" />
						</g>
					</g>
					<g id="&lt;Group&gt;" style="opacity: 0.149">
						<g id="&lt;Clip Group&gt;" clip-path="url(#cp27)">
							<path id="&lt;Path&gt;" class="shp1" d="M1296 599.44L399.04 599.44L399.04 600.99L1296 600.99L1296 599.44Z" />
						</g>
					</g>
					<g id="&lt;Group&gt;" style="opacity: 0.149">
						<g id="&lt;Clip Group&gt;" clip-path="url(#cp28)">
							<path id="&lt;Path&gt;" class="shp1" d="M1296 646.82L399.04 646.82L399.04 648.36L1296 648.36L1296 646.82Z" />
						</g>
					</g>
					<g id="&lt;Group&gt;" style="opacity: 0.149">
						<g id="&lt;Clip Group&gt;" clip-path="url(#cp29)">
							<path id="&lt;Path&gt;" class="shp1" d="M1296 694.19L399.04 694.19L399.04 695.74L1296 695.74L1296 694.19Z" />
						</g>
					</g>
					<g id="&lt;Group&gt;" style="opacity: 0.149">
						<g id="&lt;Clip Group&gt;" clip-path="url(#cp30)">
							<path id="&lt;Path&gt;" class="shp1" d="M1296 741.58L399.04 741.58L399.04 743.13L1296 743.13L1296 741.58Z" />
						</g>
					</g>
					<g id="&lt;Group&gt;" style="opacity: 0.149">
						<g id="&lt;Clip Group&gt;" clip-path="url(#cp31)">
							<path id="&lt;Path&gt;" class="shp1" d="M1296 788.95L399.04 788.95L399.04 790.5L1296 790.5L1296 788.95Z" />
						</g>
					</g>
					<g id="&lt;Group&gt;" style="opacity: 0.149">
						<g id="&lt;Clip Group&gt;" clip-path="url(#cp32)">
							<path id="&lt;Path&gt;" class="shp1" d="M1296 836.33L399.04 836.33L399.04 837.88L1296 837.88L1296 836.33Z" />
						</g>
					</g>
					<g id="&lt;Group&gt;" style="opacity: 0.149">
						<g id="&lt;Clip Group&gt;" clip-path="url(#cp33)">
							<path id="&lt;Path&gt;" class="shp1" d="M1296 883.71L399.04 883.71L399.04 885.25L1296 885.25L1296 883.71Z" />
						</g>
					</g>
				</g>
			</g>
		</g>
		<path id="&lt;Path&gt;" class="shp2" d="M-18.46 -8.68L-18.46 903.92L514.68 903.92L538.06 890.52L561.45 877.12L538.06 863.72L514.68 850.31L514.68 848.69L538.06 835.29L561.45 821.88L538.06 808.47L514.68 795.07L514.68 793.45L538.06 780.04L561.45 766.65L538.06 753.24L514.68 739.84L514.68 738.22L538.06 724.81L561.45 711.41L538.06 698L514.68 684.6L514.68 682.98L538.06 669.58L561.45 656.17L538.06 642.77L514.68 629.36L514.68 627.73L538.06 614.34L561.45 600.93L538.06 587.53L514.68 574.14L514.68 572.5L538.06 559.1L561.45 545.69L538.06 532.3L514.68 518.89L514.68 517.26L538.06 503.86L561.45 490.46L538.06 477.06L514.68 463.65L514.68 462.03L538.06 448.63L561.45 435.22L538.06 421.82L514.68 408.42L514.68 406.79L538.06 393.39L561.45 379.99L538.06 366.59L514.68 353.18L514.68 351.56L538.06 338.15L561.45 324.75L538.06 311.35L514.68 297.95L514.68 296.32L538.06 282.92L561.45 269.52L538.06 256.12L514.68 242.71L514.68 241.08L538.06 227.68L561.45 214.28L538.06 200.87L514.68 187.47L514.68 185.85L538.06 172.44L561.45 159.04L538.06 145.64L514.68 132.23L514.68 130.61L538.06 117.21L561.45 103.81L538.06 90.41L514.68 77L514.68 75.37L538.06 61.98L561.45 48.57L538.06 35.17L514.68 21.76L514.68 20.14L538.06 6.73L561.45 -6.67L557.92 -8.68L-18.46 -8.68Z" />
		<path id="&lt;Path&gt;" class="shp1" d="M-18.46 -8.68L-18.46 903.92L479.44 903.92L500.57 890.53L521.69 877.12L479.44 850.31L479.44 848.69L521.69 821.88L500.57 808.48L479.44 795.08L479.44 793.46L521.69 766.65L500.57 753.24L479.44 739.84L479.44 738.22L500.57 724.81L521.69 711.41L479.44 684.61L479.44 682.98L500.57 669.59L521.69 656.18L479.44 629.37L479.44 627.73L500.57 614.34L521.69 600.94L479.44 574.14L479.44 572.51L500.57 559.1L521.69 545.7L479.44 518.89L479.44 517.27L521.69 490.46L500.57 477.06L479.44 463.65L479.44 462.03L521.69 435.23L500.57 421.82L479.44 408.42L479.44 406.8L500.57 393.39L521.69 380L479.44 353.19L479.44 351.57L500.57 338.16L521.69 324.76L479.44 297.95L479.44 296.32L521.69 269.52L500.57 256.12L479.44 242.71L479.44 241.09L521.69 214.28L500.57 200.87L479.44 187.48L479.44 185.85L521.69 159.05L500.57 145.64L479.44 132.24L479.44 130.62L521.69 103.81L500.57 90.41L479.44 77L479.44 75.38L500.57 61.98L521.69 48.57L479.44 21.77L479.44 20.14L500.57 6.73L521.69 -6.66L518.51 -8.68L-18.46 -8.68Z" />
	</g>
</svg>